<svg viewBox="0 0 2618 1000" xmlns="http://www.w3.org/2000/svg" fill-rule="evenodd" clip-rule="evenodd" stroke-linejoin="round" stroke-miterlimit="2"><path fill="#004550" d="M0 0h4236.055v1000H0z"/><path d="M893.494 640.796c-3.32 0-5.687-.757-7.102-2.27-1.416-1.513-2.123-4.076-2.123-7.688s.707-6.174 2.123-7.687c1.415-1.513 3.783-2.27 7.102-2.27h25.186V563.04c-12.593 16.108-28.066 24.161-46.419 24.161-12.105 0-22.94-2.855-32.508-8.566-9.567-5.71-17.084-13.911-22.55-24.6-5.467-10.69-8.2-23.259-8.2-37.707s2.733-27.017 8.2-37.706c5.466-10.69 12.983-18.89 22.55-24.601 9.567-5.71 20.403-8.567 32.508-8.567 9.567 0 18.402 2.148 26.504 6.443 8.103 4.296 15.23 10.446 21.38 18.451v-11.715c0-3.612.708-6.174 2.123-7.687 1.416-1.513 3.783-2.27 7.102-2.27h109.239c3.319 0 5.686.757 7.102 2.27 1.415 1.513 2.123 4.075 2.123 7.687 0 3.613-.708 6.175-2.123 7.688-1.416 1.513-3.783 2.27-7.102 2.27h-18.744l41.295 82.295 39.39-82.295h-13.033c-3.319 0-5.686-.757-7.102-2.27-1.415-1.513-2.123-4.075-2.123-7.688 0-3.612.708-6.174 2.123-7.687 1.416-1.513 3.783-2.27 7.102-2.27h45.98c3.32 0 5.687.757 7.102 2.27 1.416 1.513 2.124 4.075 2.124 7.687 0 3.613-.708 6.175-2.124 7.688-1.415 1.513-3.783 2.27-7.102 2.27h-9.078l-59.892 122.71c-6.345 12.984-12.601 22.16-18.654 29.58-6.052 7.42-12.861 12.037-20.427 15.503-7.566 3.465-16.767 4.021-27.603 4.412-.35.01-104.35 0-104.35 0zM995.997 468.59h-55.352v152.29h54.27c9.371-.488 16.815-1.226 22.33-3.861 5.516-2.636 10.592-7.976 15.23-14.37 4.637-6.394 10.38-15.35 17.116-28.92l-53.594-105.14zm-122.271-1.464c-8.689 0-16.157 2.074-22.405 6.223-6.248 4.149-11.007 9.933-14.277 17.352-3.27 7.42-4.906 15.961-4.906 25.626 0 9.664 1.636 18.207 4.906 25.626 3.27 7.419 8.03 13.203 14.277 17.352 6.248 4.15 13.716 6.223 22.405 6.223 8.688 0 16.424-1.952 23.21-5.857 6.784-3.905 12.104-9.567 15.96-16.986 3.856-7.42 5.784-16.205 5.784-26.358 0-10.153-1.928-18.939-5.784-26.358-3.856-7.419-9.176-13.081-15.96-16.986-6.786-3.905-14.522-5.857-23.21-5.857zM1278.369 445.429c3.899 0 6.598.9 8.397 2.099 1.5 1.5 2.4 3.899 2.4 7.497v42.285c0 3.6-.9 5.998-2.4 7.498-1.8 1.5-4.498 2.099-8.397 2.099-4.199 0-6.898-.6-8.697-2.1-1.5-1.499-2.4-3.898-2.4-7.497 0-5.698-1.499-11.096-4.797-15.594-3-4.798-7.798-8.097-13.796-10.796-6.297-2.4-13.795-3.899-22.492-3.899-9.296 0-17.693 2.1-25.19 6.298a46.933 46.933 0 00-17.395 17.694c-4.198 7.497-6.297 15.894-6.297 25.19 0 9.597 2.099 17.994 5.997 25.492 3.9 7.497 9.597 13.195 16.795 17.394 7.197 4.198 15.294 6.297 24.59 6.297 8.998 0 17.695-1.2 26.392-3.898 8.397-3 15.894-6.898 22.792-12.296 2.099-1.5 4.198-2.4 5.698-2.4 2.999 0 5.698 2.1 8.097 5.999 1.5 2.699 2.099 4.798 2.099 7.197 0 3.3-1.5 6.298-4.498 8.397-8.098 5.998-17.094 10.497-27.89 13.795-10.497 3.3-21.593 5.099-32.69 5.099-13.794 0-26.09-3.3-36.886-9.297-10.796-6.298-18.893-14.695-24.891-25.191-5.698-10.796-8.697-23.092-8.697-36.587 0-13.496 2.999-25.491 8.997-36.288 5.997-10.496 14.095-19.193 24.89-25.19 10.797-6.298 22.793-9.297 36.588-9.297 8.697 0 16.794 1.5 23.991 4.798 7.198 3.299 13.496 7.797 18.594 13.495v-8.697c0-3.598.9-5.998 2.399-7.497 1.8-1.2 4.498-2.1 8.697-2.1zM1363.551 391.748c2.7 0 4.798.6 5.998 1.5 1.2 1.199 1.8 2.698 1.8 5.097 0 1.5-.3 2.7-.3 3.599 0 0-1.8 144.25-1.8 146.348 0 6.298 1.5 10.497 4.798 13.496 3.3 2.699 8.098 3.898 14.995 3.898 5.398 0 11.096-.9 16.494-2.699a76.367 76.367 0 0017.394-8.397c1.5-.9 3-1.2 4.199-1.2 1.8 0 3.299.6 4.498 1.8 1.5 1.2 2.4 2.999 3.299 5.098.9 2.1 1.2 3.899 1.2 5.998 0 3.299-1.8 5.998-5.399 8.097-14.994 8.697-29.69 12.896-44.084 12.896-12.596 0-22.192-3.3-29.09-9.897-6.897-6.298-10.196-15.295-10.196-26.99V411.84h-40.186c-2.7 0-4.499-.6-5.698-1.5-1.5-.9-2.1-2.699-2.1-5.098 0-1.5.3-2.4.3-3.299.9-3.599 2.1-6.298 3.6-7.797 1.799-1.5 4.198-2.4 7.497-2.4h52.781z" fill="#c2e1eb" fill-rule="nonzero"/><path d="M1477.02 384.25c5.398 0 8.997.9 10.796 2.4 2.1 1.199 3 3.598 3 7.197v19.193c0 3.299-.9 5.998-3 7.198-1.799 1.499-5.398 2.099-10.796 2.099s-8.997-.6-11.096-2.1c-1.8-1.199-2.999-3.898-2.999-7.197v-19.193c0-3.599 1.2-5.998 2.999-7.198 2.1-1.5 5.698-2.399 11.096-2.399zM1484.96 448.727c2.7 0 4.5.3 5.699 1.5 1.5.9 2.099 2.4 2.099 4.798 0 1.5-.3 2.7-.3 3.599 0 0-1.8 87.27-1.8 89.668 0 5.998 1.5 10.497 4.5 13.496 3.298 2.699 8.096 3.898 14.994 3.898 5.698 0 11.096-.9 16.794-2.699 5.398-1.8 11.096-4.498 17.394-8.397 1.2-.9 2.699-1.2 4.198-1.2 1.5 0 3 .6 4.499 1.8 1.2 1.2 2.399 2.999 3.299 5.098.9 2.1 1.2 3.899 1.2 5.998 0 3.299-1.8 5.998-5.699 8.097-14.695 8.697-29.39 12.896-43.784 12.896-12.596 0-22.193-3.3-29.09-9.897-6.898-6.298-10.197-15.295-10.197-26.99 0-3.899-.3-81.871-.3-81.871h-36.887c-2.699 0-4.798-.3-5.997-1.5-1.2-.9-1.8-2.699-1.8-5.098 0-.3 0-1.5.3-3.299.6-3.599 1.8-6.298 3.599-7.797 1.5-1.5 4.198-2.1 7.497-2.1h49.783z" fill="#c2e1eb"/><g><path d="M995.997 468.59h-55.352v152.291h54.27c9.371-.488 16.815-1.226 22.33-3.861 5.516-2.636 10.592-7.976 15.23-14.37 4.637-6.394 10.38-15.35 17.116-28.92l-53.594-105.14z" fill="#c2e1eb" fill-opacity=".24"/></g><g><path d="M1697.465 341.532H1582.27V658.47h112.943c19.504-1.015 34.994-2.55 46.473-8.036 11.48-5.486 22.044-16.598 31.694-29.905 9.65-13.307 21.605-31.947 35.623-60.187l-111.538-218.81z" fill="#c2e1eb" fill-opacity=".62"><animate attributeName="opacity" attributeType="XML" begin="0" dur="1.6s" values="0;1;1;1;1;1;1;1;1;1;1;1;1;1;1;1;1;0;0;0;0;0;0;0;0;0;" repeatCount="indefinite"/></path></g></svg>