<svg xmlns="http://www.w3.org/2000/svg" viewBox="0 0 2618 1000" fill-rule="evenodd" clip-rule="evenodd" stroke-linejoin="round" stroke-miterlimit="2"><path fill="#004550" d="M0 0h4236v1000H0z"/><path d="M893.5 640.8c-3.3 0-5.7-.8-7.1-2.3-1.4-1.5-2.1-4-2.1-7.7s.7-6.1 2-7.6c1.5-1.6 3.9-2.3 7.2-2.3h25.2V563a57 57 0 0 1-46.4 24.2 59.3 59.3 0 0 1-55-33.2c-5.6-10.7-8.3-23.2-8.3-37.7s2.7-27 8.2-37.7a59.3 59.3 0 0 1 55-33.1c9.6 0 18.5 2.1 26.6 6.4a65.8 65.8 0 0 1 21.3 18.4v-11.7c0-3.6.8-6.1 2.2-7.7 1.4-1.5 3.8-2.2 7-2.2h109.3c3.3 0 5.7.7 7.1 2.2 1.4 1.6 2.1 4.1 2.1 7.7 0 3.6-.7 6.2-2 7.7-1.5 1.5-3.9 2.3-7.2 2.3H1020l41.3 82.3 39.4-82.3h-13c-3.4 0-5.8-.8-7.2-2.3-1.4-1.5-2.1-4-2.1-7.7 0-3.6.7-6.1 2.1-7.7 1.4-1.5 3.8-2.2 7.1-2.2h46c3.3 0 5.7.7 7.1 2.2 1.4 1.6 2.1 4.1 2.1 7.7 0 3.6-.7 6.2-2.1 7.7-1.4 1.5-3.8 2.3-7.1 2.3h-9l-60 122.7c-6.3 13-12.6 22.2-18.6 29.6-6 7.4-12.9 12-20.5 15.5-7.5 3.4-16.7 4-27.6 4.4H893.5zM996 468.6h-55.4v152.3H995c9.4-.5 16.8-1.2 22.3-3.9 5.6-2.6 10.6-8 15.3-14.4 4.6-6.3 10.4-15.3 17-28.9L996 468.6zM873.7 467c-8.7 0-16.1 2.1-22.4 6.2-6.2 4.2-11 10-14.3 17.4a63 63 0 0 0-4.9 25.6 63 63 0 0 0 5 25.7c3.2 7.4 8 13.2 14.2 17.3a39.6 39.6 0 0 0 22.4 6.2c8.7 0 16.4-2 23.2-5.8a40.7 40.7 0 0 0 16-17 56.4 56.4 0 0 0 5.8-26.4c0-10.1-2-19-5.8-26.3-3.9-7.5-9.2-13.1-16-17a45.7 45.7 0 0 0-23.2-5.9zm404.7-21.7c3.9 0 6.6 1 8.4 2.1 1.5 1.5 2.4 4 2.4 7.5v42.3c0 3.6-1 6-2.4 7.5-1.8 1.5-4.5 2.1-8.4 2.1-4.2 0-7-.6-8.7-2-1.5-1.6-2.4-4-2.4-7.6a26 26 0 0 0-4.8-15.6c-3-4.8-7.8-8-13.8-10.8a62.9 62.9 0 0 0-22.5-3.9c-9.3 0-17.7 2.1-25.2 6.3a47 47 0 0 0-17.4 17.7 50.7 50.7 0 0 0-6.3 25.2c0 9.6 2.1 18 6 25.5a42.7 42.7 0 0 0 16.8 17.4 47.6 47.6 0 0 0 24.6 6.3 88 88 0 0 0 26.4-4c8.4-3 15.9-6.8 22.8-12.2 2-1.5 4.2-2.4 5.7-2.4 3 0 5.7 2 8 6a14 14 0 0 1 2.2 7.2 10 10 0 0 1-4.5 8.4c-8.1 6-17.1 10.5-28 13.8a109.4 109.4 0 0 1-32.6 5c-13.8 0-26.1-3.2-36.9-9.2a66.9 66.9 0 0 1-24.9-25.2 77.5 77.5 0 0 1-8.7-36.6c0-13.5 3-25.5 9-36.3a64.8 64.8 0 0 1 24.9-25.2 70.7 70.7 0 0 1 60.6-4.5 56 56 0 0 1 18.6 13.5V455c0-3.6.9-6 2.4-7.5 1.8-1.2 4.5-2 8.7-2zm85.2-53.7c2.7 0 4.7.6 6 1.5 1.1 1.2 1.7 2.7 1.7 5.1 0 1.5-.3 2.7-.3 3.6l-1.8 146.4c0 6.3 1.5 10.5 4.8 13.5 3.3 2.7 8.1 3.9 15 3.9 5.4 0 11.1-1 16.5-2.7a76.4 76.4 0 0 0 17.4-8.4c1.5-1 3-1.2 4.2-1.2 1.8 0 3.3.6 4.5 1.8 1.5 1.2 2.4 3 3.3 5 1 2.2 1.2 4 1.2 6 0 3.4-1.8 6-5.4 8.2a87.3 87.3 0 0 1-44 12.9 40.2 40.2 0 0 1-29.1-10c-7-6.2-10.2-15.2-10.2-27V411.9h-40.2c-2.7 0-4.5-.6-5.7-1.5-1.5-.9-2.1-2.7-2.1-5 0-1.6.3-2.5.3-3.4.9-3.6 2-6.3 3.6-7.8 1.8-1.5 4.2-2.4 7.5-2.4h52.8z" fill="#c2e1eb" fill-rule="nonzero"/><path d="M1477 384.3c5.4 0 9 .8 10.8 2.3 2.1 1.2 3 3.6 3 7.2V413c0 3.3-.9 6-3 7.2-1.8 1.5-5.4 2.1-10.8 2.1s-9-.6-11-2c-1.9-1.3-3-4-3-7.3v-19.2c0-3.6 1.1-6 3-7.2 2-1.5 5.6-2.4 11-2.4zm8 64.4c2.7 0 4.5.3 5.7 1.5 1.5 1 2 2.4 2 4.8l-.2 3.6-1.8 89.7c0 6 1.5 10.5 4.5 13.5 3.3 2.7 8 3.9 15 3.9 5.6 0 11-1 16.7-2.7a82.9 82.9 0 0 0 17.4-8.4 7.2 7.2 0 0 1 8.7.6 16.7 16.7 0 0 1 4.5 11c0 3.4-1.8 6-5.7 8.2a85.5 85.5 0 0 1-43.7 12.9 40.2 40.2 0 0 1-29.1-10c-7-6.2-10.2-15.2-10.2-27l-.3-81.8h-37c-2.6 0-4.7-.3-6-1.5-1.1-.9-1.7-2.7-1.7-5 0-.4 0-1.6.3-3.4.6-3.6 1.8-6.3 3.6-7.8 1.5-1.5 4.2-2 7.5-2h49.8z" fill="#c2e1eb"/><path d="M996 468.6h-55.4v152.3H995c9.4-.5 16.8-1.2 22.3-3.9 5.6-2.6 10.6-8 15.3-14.4 4.6-6.3 10.4-15.3 17-28.9L996 468.6z" fill="#c2e1eb" fill-opacity=".2"/><path d="M1697.5 341.5h-115.2v317h113c19.4-1 35-2.6 46.4-8 11.5-5.6 22-16.7 31.7-30 9.6-13.3 21.6-32 35.6-60.2l-111.5-218.8z" fill="#c2e1eb" fill-opacity=".6"><animate attributeName="opacity" attributeType="XML" begin="0" dur="1.6s" values="0;1;1;1;1;1;1;1;1;1;1;1;1;1;1;1;1;0;0;0;0;0;0;0;0;0;" repeatCount="indefinite"/></path></svg>
